<?xml version="1.0" encoding="UTF-8" standalone="no"?>
<!-- Created with Inkscape (http://www.inkscape.org/) -->

<svg
   width="100mm"
   height="100mm"
   viewBox="0 0 100 100"
   version="1.1"
   id="svg1"
   xml:space="preserve"
   inkscape:version="1.4 (e7c3feb, 2024-10-09)"
   sodipodi:docname="RocKIT.svg"
   xmlns:inkscape="http://www.inkscape.org/namespaces/inkscape"
   xmlns:sodipodi="http://sodipodi.sourceforge.net/DTD/sodipodi-0.dtd"
   xmlns="http://www.w3.org/2000/svg"
   xmlns:svg="http://www.w3.org/2000/svg"><sodipodi:namedview
     id="namedview1"
     pagecolor="#ffffff"
     bordercolor="#000000"
     borderopacity="0.25"
     inkscape:showpageshadow="2"
     inkscape:pageopacity="0.0"
     inkscape:pagecheckerboard="0"
     inkscape:deskcolor="#d1d1d1"
     inkscape:document-units="mm"
     inkscape:zoom="1"
     inkscape:cx="397"
     inkscape:cy="321"
     inkscape:window-width="1920"
     inkscape:window-height="1010"
     inkscape:window-x="0"
     inkscape:window-y="0"
     inkscape:window-maximized="1"
     inkscape:current-layer="layer1" /><defs
     id="defs1" /><g
     inkscape:label="Layer 1"
     inkscape:groupmode="layer"
     id="layer1"><path
       style="fill:#ffffff;stroke-width:0.6735"
       d="m 30.837346,99.612005 c 0.159484,-0.561016 5.294075,-14.737966 8.745044,-24.145667 2.84325,-7.750991 3.467687,-9.715187 3.993866,-12.562871 0.668775,-3.619425 0.72167,-5.34454 0.72167,-23.535929 0,-18.93096 0.04042,-20.026683 0.905063,-24.527329 0.565107,-2.941535 1.150418,-4.9877569 2.511905,-8.7815179 C 48.400767,4.1475302 49.17026,2.002487 49.424889,1.2919271 49.679513,0.58136716 49.93842,0 50.000228,0 c 0.06182,0 0.320713,0.58136716 0.575336,1.2919271 0.25463,0.7105599 1.024124,2.8556031 1.709996,4.766764 1.361486,3.793761 1.946798,5.8399829 2.511898,8.7815179 0.865273,4.50396 0.905069,5.587418 0.905069,24.640388 0,18.299614 0.04405,19.726922 0.72346,23.42287 0.544376,2.961493 1.145542,4.804047 5.029123,15.414025 4.45151,12.161565 7.541762,20.697157 7.709532,21.294513 0.272436,0.970065 -0.149261,0.109757 -1.27334,-2.597705 C 65.35827,90.913223 64.921775,89.87212 62.293765,83.663395 55.965946,68.713783 55.52217,67.568686 54.66271,63.972649 53.456897,58.927404 53.385964,57.458771 53.385964,37.536655 c 0,-19.042611 -0.01528,-19.444281 -0.896792,-23.549013 -0.478413,-2.227736 -2.235143,-7.572557 -2.488944,-7.572557 -0.253803,0 -2.010533,5.344821 -2.488946,7.572557 -0.880992,4.102389 -0.896792,4.515285 -0.896792,23.435954 0,17.665128 -0.05617,19.706708 -0.641926,23.341511 -0.75277,4.671063 -1.671438,7.33107 -6.308113,18.26517 -3.591509,8.469414 -4.993647,11.80674 -7.59321,18.073119 -1.086755,2.619693 -1.510227,3.480634 -1.233895,2.508609 z"
       id="path1" /></g></svg>
